PathFileType	4	(X/Y/Z)	D:\TRACE\spotREDO_2-26-24\spot_justBody_Motion_3_5-v60.trc
DataRate	CameraRate	NumFrames	NumMarkers	Units	OrigDataRate	OrigDataStartFrame	OrigNumFrames
100.00	100.00	      28	9	mm	100.00	876	      7000
Frame#	Time	front left toe			Front right toe			aft left toe			aft right toe			Arm			FL body			FR body			AL Body			AR Body			
		X1	Y1	Z1	X2	Y2	Z2	X3	Y3	Z3	X4	Y4	Z4	X5	Y5	Z5	X6	Y6	Z6	X7	Y7	Z7	X8	Y8	Z8	X9	Y9	Z9	

876	8.750	-289.16626	22.03744	-130.99995	288.97720	25.09571	-171.44914	-208.08832	24.85328	354.85104	324.56161	33.51374	367.13019	-17.23429	796.13220	-306.13065	-98.01069	537.70770	-266.88358	57.08521	542.11749	-281.30148	-25.27318	578.13824	612.61237	114.93532	583.68835	602.44983	
877	8.760	-289.17792	22.24556	-130.97237	288.83713	25.17094	-171.40320	-208.23672	24.72798	354.83325	324.37051	33.10482	367.15671	-16.65790	796.24231	-306.52759	-97.39797	537.71185	-267.16360	57.95809	542.30420	-281.79364	-24.66492	578.31555	612.24658	115.78773	583.68805	601.91333	
878	8.770	-289.31232	22.43340	-130.99925	288.82941	25.19146	-171.30196	-208.32913	24.69022	354.83496	324.45483	32.83511	367.25323	-15.83053	796.39795	-307.10919	-96.34767	537.98926	-267.79993	58.99730	542.77515	-282.81201	-23.13324	577.63751	611.52002	117.01519	583.59998	601.37354	
879	8.780	-289.40411	22.59072	-130.98119	288.79562	25.12944	-171.14455	-208.41588	24.57997	354.78311	324.56308	32.66235	367.30856	-14.66975	796.49933	-307.52869	-95.40741	538.08221	-268.45358	60.01121	542.56934	-282.88803	-22.68280	577.84149	611.10193	117.99171	583.33533	600.87305	
880	8.790	-289.42081	22.67941	-131.01649	288.75989	25.08365	-171.01849	-208.48140	24.41971	354.75671	324.56989	32.41122	367.43753	-13.88351	796.76025	-307.79178	-94.65598	538.24133	-268.96545	60.85421	542.66840	-283.47852	-21.67631	577.51416	610.43616	119.40535	582.79352	600.35504	
881	8.800	-289.40155	22.80446	-131.07346	288.78372	25.13484	-170.90662	-208.51869	24.36657	354.78384	324.64740	32.23578	367.47641	-12.80838	796.97662	-308.44028	-93.55727	538.15143	-269.48828	61.86020	542.88306	-284.14374	-20.75571	577.09778	609.85626	119.93760	582.61438	599.76727	
882	8.810	-289.35953	23.02557	-131.13734	288.70789	25.14397	-170.78809	-208.56319	24.18699	354.85779	324.66739	31.95616	367.62521	-11.98528	797.26587	-308.84634	-92.27470	538.59485	-270.37680	62.71881	543.34662	-284.82782	-19.50315	576.73749	609.23175	121.05427	582.38208	599.00116	
883	8.820	-289.32755	23.23010	-131.16104	288.71826	25.19300	-170.72188	-208.58333	24.03038	354.94400	324.65317	31.64505	367.68472	-11.05714	797.66504	-309.38745	-91.41587	538.84418	-270.86322	63.81673	543.56158	-285.43518	-18.70856	576.53430	608.60004	121.79671	582.09521	598.35919	
884	8.830	-289.30786	23.36575	-131.10820	288.74362	25.14757	-170.62387	-208.61110	23.87470	354.96899	324.61414	31.39665	367.82086	-9.65694	797.75903	-309.79547	-90.24957	538.88770	-271.43698	64.85263	543.82117	-286.17288	-17.68382	576.19171	607.96942	123.25274	581.46210	597.71753	
885	8.840	-289.29501	23.44707	-131.09698	288.80423	25.18542	-170.57864	-208.64496	23.64659	355.03033	324.55692	31.21301	367.89130	-8.95478	798.01581	-310.26227	-89.24287	539.32086	-272.47684	66.06020	544.00226	-286.82983	-16.61727	575.67896	607.31097	123.96972	581.33771	597.23291	
886	8.850	-289.34409	23.54991	-131.10597	288.71198	25.20842	-170.49965	-208.71693	23.51961	355.05389	324.47931	30.83336	367.98828	-7.80458	798.28931	-311.05774	-88.25683	539.45837	-273.08051	67.17982	544.45166	-287.85519	-15.61914	575.36261	606.64264	124.93479	581.00616	596.53137	
887	8.860	-289.42325	23.71999	-131.03384	288.76300	25.19178	-170.38048	-208.73329	23.45984	355.02600	324.49326	30.41974	368.09891	-6.56027	798.53168	-311.36328	-87.26238	539.81665	-273.78049	68.12742	544.49628	-288.25577	-14.66597	574.99664	605.84344	125.97143	580.63306	595.60425	
888	8.870	-289.45074	23.96376	-131.07228	288.77304	25.31176	-170.18346	-208.71428	23.34809	355.05515	324.40103	30.11614	368.10797	-5.43695	798.89404	-312.06335	-85.87401	540.05688	-274.71762	69.42475	544.69061	-289.15582	-13.67274	574.60803	605.23474	127.14303	580.01996	595.11078	
889	8.880	-289.38107	24.17786	-131.00041	288.87878	25.29435	-170.14563	-208.78542	23.26749	355.09659	324.49680	29.90158	368.19119	-4.24139	799.18701	-312.60239	-84.74213	540.09735	-275.37070	70.39419	545.06281	-289.68719	-12.16844	573.73120	604.09338	128.10123	579.80817	594.33344	
890	8.890	-289.40158	24.24298	-131.05017	288.86398	25.39599	-169.96649	-208.73251	23.13266	355.09702	324.52170	29.65569	368.35150	-3.06745	799.35065	-313.43484	-83.72456	540.57208	-276.35858	71.70663	545.05273	-290.53290	-11.75004	573.78247	603.71869	129.15091	579.30566	593.56287	
891	8.900	-289.34445	24.37630	-131.00751	288.87259	25.30849	-169.91084	-208.67987	22.90758	355.18002	324.55914	29.51039	368.43921	-1.68300	799.51831	-313.75418	-82.39436	540.62634	-277.19611	72.73817	545.43854	-291.38400	-10.64233	573.31830	602.59351	130.05969	579.06714	592.65570	
892	8.910	-289.30988	24.59859	-131.03206	288.90732	25.38886	-169.78191	-208.66713	22.69679	355.28671	324.65219	29.31530	368.62799	-0.60196	799.75439	-314.61841	-81.24550	540.74579	-277.92972	73.97931	545.30634	-292.13760	-9.49220	572.94299	602.01105	131.12628	578.52527	591.85822	
893	8.920	-289.27609	24.91811	-131.11171	288.89240	25.27143	-169.83821	-208.59096	22.56218	355.27756	324.78824	29.07357	368.66891	0.70828	799.88556	-315.34692	-79.91130	541.01190	-278.91702	75.34434	545.53448	-293.24176	-8.29452	572.54877	600.97369	132.26918	578.21851	591.16290	
894	8.930	-289.26199	25.09755	-131.21002	288.98199	25.28000	-169.67970	-208.59431	22.52918	355.30197	324.82541	28.83426	368.78864	1.76116	800.13129	-316.08542	-78.81985	541.19055	-279.79001	76.45631	545.80298	-294.02911	-7.22659	572.38153	600.06055	133.29927	577.99109	590.13916	
895	8.940	-289.22964	25.25142	-131.21126	289.02829	25.33029	-169.64642	-208.55313	22.35933	355.32059	325.00882	28.51371	368.97372	3.08958	800.38348	-317.06570	-78.00822	541.38464	-281.37988	77.48188	545.87238	-294.94489	-6.20395	571.99109	599.07623	134.35188	577.74762	589.20831	
896	8.950	-289.25247	25.36916	-131.21187	289.10867	25.48215	-169.51158	-208.48611	22.27456	355.36160	325.12396	28.09640	369.07095	4.35601	800.34149	-317.74014	-76.39802	541.33252	-281.92181	78.81731	545.97644	-295.95331	-4.73511	571.69446	598.15656	135.83478	577.45154	588.47260	
897	8.960	-289.15137	25.49523	-131.19115	289.08176	25.48537	-169.58672	-208.38261	22.12055	355.40768	325.12854	27.88058	369.14990	5.57566	800.55194	-318.68497	-75.16442	541.38562	-283.07312	80.23967	546.14941	-297.06323	-3.95535	571.37433	597.09552	136.77086	577.06006	587.08514	
898	8.970	-288.99677	25.61000	-131.20087	289.17990	25.60601	-169.34250	-208.30507	21.99221	355.44742	325.22333	27.72807	369.21399	6.72689	800.77997	-319.98547	-73.48565	541.32074	-283.77942	81.40301	546.25012	-298.09241	-2.07968	570.63269	595.87640	138.06409	576.91223	585.98810	
899	8.980	-288.92038	25.80508	-131.10944	289.24576	25.68956	-169.32896	-208.24422	21.88914	355.48886	325.25458	27.51269	369.24936	7.78251	800.84949	-320.80637	-72.32790	541.66290	-285.08261	82.70878	546.39984	-299.17917	-1.08028	570.60260	594.83044	139.38664	576.51459	585.16351	
900	8.990	-288.89145	25.89079	-131.08968	289.27048	25.74270	-169.16762	-208.21678	21.69398	355.58157	325.26532	27.31770	369.27475	9.22669	800.92792	-321.95554	-71.07112	541.57776	-286.11584	84.09645	546.44366	-300.37991	-0.15851	570.42902	593.68768	140.76566	576.27606	583.68781	
901	9.000	-288.89258	26.00651	-131.08516	288.98636	25.93788	-169.29605	-208.13966	21.48523	355.67920	325.30371	26.92348	369.36960	10.45525	800.95715	-323.14972	-69.75583	541.65930	-287.39197	85.65308	546.43506	-301.76712	1.64260	570.26166	592.52661	142.36652	576.05957	582.55304	
902	9.010	-288.90781	26.13130	-131.04146	289.21735	25.93744	-169.14821	-208.24632	21.08644	355.84286	325.29578	26.71027	369.38239	12.05185	800.94299	-324.26517	-67.66257	541.75659	-289.19131	87.16802	546.50586	-302.98114	3.17711	569.81494	591.05469	142.87791	575.90692	581.06146	
903	9.020	-288.96948	26.03201	-130.87688	288.93646	25.89133	-169.35077	-208.67259	21.39384	355.34613	325.41144	26.19216	369.27722	13.44793	801.06384	-325.81058	-66.62392	541.61658	-290.24261	88.58605	546.45117	-304.59369	4.81008	569.44385	589.54877	145.38890	575.40845	579.84888	
